<?xml version="1.0" standalone="no"?>
<!DOCTYPE svg PUBLIC "-//W3C//DTD SVG 20010904//EN"
 "http://www.w3.org/TR/2001/REC-SVG-20010904/DTD/svg10.dtd">
<svg version="1.0" xmlns="http://www.w3.org/2000/svg"
 width="168.889845pt" height="47.798012pt" viewBox="0 0 168.889845 47.798012"
 preserveAspectRatio="xMidYMid meet">
<metadata>
Created by potrace 1.12, written by Peter Selinger 2001-2015
</metadata>
<g transform="translate(-165.110155,224.798012) scale(0.100000,-0.100000)"
fill="#000000" stroke="none">
<path d="M2854 2236 c-18 -8 -35 -19 -39 -26 -14 -22 6 -23 44 -2 48 27 96 28
139 2 37 -22 56 -26 50 -8 -14 40 -132 61 -194 34z"/>
<path d="M2874 2190 c-23 -9 -39 -28 -31 -36 3 -3 19 2 36 10 38 20 71 20 97
1 24 -18 34 -19 34 -2 0 30 -87 47 -136 27z"/>
<path d="M2573 2168 c-38 -12 -42 -23 -13 -31 19 -5 20 -14 20 -189 1 -146 3
-180 13 -167 10 13 16 13 37 2 62 -32 149 -1 176 62 48 116 -51 224 -156 170
l-30 -16 0 91 c0 49 -3 90 -7 89 -5 -1 -23 -6 -40 -11z m154 -173 c45 -32 52
-140 12 -183 -29 -32 -58 -37 -88 -15 -24 18 -26 27 -29 99 -3 71 -1 81 19 97
26 21 58 22 86 2z"/>
<path d="M3088 2167 c-42 -10 -49 -22 -18 -30 19 -5 20 -14 20 -172 0 -158 -1
-167 -20 -172 -40 -11 -18 -23 40 -23 58 0 80 12 40 23 -17 4 -20 14 -20 56 0
69 15 66 81 -14 49 -59 58 -65 92 -65 20 0 37 5 37 10 0 6 -6 10 -14 10 -16 0
-126 121 -126 137 0 18 79 83 100 83 11 0 20 5 20 10 0 6 -25 10 -55 10 -30 0
-55 -4 -55 -10 0 -5 7 -10 15 -10 8 0 15 -4 15 -9 0 -11 -87 -91 -99 -91 -6 0
-12 53 -13 133 l-3 133 -37 -9z"/>
<path d="M2903 2150 c-37 -15 -26 -25 27 -25 28 0 50 3 50 8 0 6 -46 29 -53
26 -1 0 -12 -4 -24 -9z"/>
<path d="M1765 2110 c3 -5 12 -10 20 -10 27 0 21 -28 -35 -160 -40 -95 -63
-138 -78 -145 -37 -17 -24 -25 38 -25 33 0 60 4 60 10 0 6 -9 10 -19 10 -28 0
-32 11 -19 53 l11 37 74 0 c68 0 74 -2 83 -24 18 -47 16 -61 -7 -64 -51 -7
-19 -22 47 -22 40 0 70 4 70 10 0 6 -6 10 -14 10 -8 0 -28 33 -46 78 -104 250
-105 252 -157 252 -20 0 -32 -4 -28 -10z m88 -137 l25 -68 -55 -3 c-31 -2 -57
-1 -60 1 -6 6 49 137 58 137 4 0 18 -30 32 -67z"/>
<path d="M2075 2023 c-31 -8 -42 -23 -17 -23 21 0 22 -4 22 -101 0 -92 -2
-101 -20 -106 -41 -11 -18 -23 45 -23 63 0 86 12 44 23 -19 5 -21 12 -19 99 3
152 6 145 -55 131z"/>
<path d="M2159 2010 c-27 -22 -22 -25 15 -9 20 10 30 9 51 -5 24 -16 25 -21
25 -111 0 -89 -1 -95 -21 -95 -11 0 -17 -4 -14 -10 8 -12 125 -13 125 -1 0 5
-9 11 -20 14 -18 5 -20 14 -20 90 0 63 4 90 15 101 25 25 54 29 80 12 24 -15
25 -22 25 -107 0 -82 -2 -91 -20 -96 -41 -11 -18 -23 45 -23 63 0 86 12 45 23
-18 5 -20 14 -20 95 0 75 -3 93 -21 116 -25 32 -77 35 -124 6 -32 -20 -32 -20
-50 0 -24 27 -85 27 -116 0z"/>
<path d="M2915 2023 c-45 -10 -51 -15 -27 -24 21 -8 22 -14 22 -105 0 -87 -2
-96 -20 -101 -41 -11 -18 -23 45 -23 63 0 86 12 45 23 -19 5 -20 14 -20 121 0
121 1 119 -45 109z"/>
</g>
</svg>
